# xmcd CD database file
#
# Track frame offsets:
#	150
#	33602
#	53417
#	78100
#
# Disc length: 1469 seconds
#
# Revision: 1
# Processed by: cddbd v1.5.1PL0 Copyright (c) Steve Scherf et al.
# Submitted via: CDex 1.51
#
DISCID=2205bb04
DTITLE=Orquesta De La Luz  - Salsa Bailable
DYEAR=1990
DGENRE=Salsa
TTITLE0=Salsa Es Mi Energía (Genki No Gen Mix)
TTITLE1=Cuero Sonó (Motion Mix)
TTITLE2=Salsa Caliente Del Japón (Motion "Charanga" Version)
TTITLE3=Cuero Sonó (Absolutely Shockin' Dub Version)
EXTD=YEAR: 1990
EXTT0=
EXTT1=
EXTT2=
EXTT3=
PLAYORDER=
